<svg width="400" height="500" viewBox="0 0 400 500" fill="none" xmlns="http://www.w3.org/2000/svg">
  <!-- Card Base -->
  <rect x="20" y="20" width="360" height="460" rx="24" fill="white" stroke="#E5E7EB" stroke-width="4"/>
  <rect x="40" y="40" width="320" height="440" rx="20" fill="white" fill-opacity="0.5"/> <!-- Inner padding area -->
  
  <!-- Food Image Placeholder -->
  <rect x="40" y="40" width="320" height="200" rx="16" fill="#FDE68A"/>
  <circle cx="200" cy="140" r="60" fill="#FCD34D"/> <!-- Abstract Food -->
  
  <!-- Text Lines -->
  <rect x="40" y="260" width="200" height="24" rx="4" fill="#111827"/>
  <rect x="40" y="294" width="280" height="12" rx="2" fill="#9CA3AF"/>
  <rect x="40" y="314" width="240" height="12" rx="2" fill="#9CA3AF"/>
  
  <!-- Price and Add Button -->
  <rect x="40" y="350" width="80" height="24" rx="4" fill="#FFC529"/>
  
  <rect x="260" y="340" width="100" height="40" rx="20" fill="#10B981"/> <!-- Add Button (Green accent for action) -->
  <path d="M305 352V368M297 360H313" stroke="white" stroke-width="3" stroke-linecap="round"/>

  <!-- Tags -->
  <rect x="40" y="400" width="60" height="20" rx="10" fill="#F3F4F6"/>
  <rect x="110" y="400" width="60" height="20" rx="10" fill="#F3F4F6"/>
  
  <!-- Decorative Dots -->
  <circle cx="360" cy="60" r="4" fill="#FFC529"/>
  <circle cx="360" cy="80" r="4" fill="#FFC529"/>
  <circle cx="360" cy="100" r="4" fill="#FFC529"/>
</svg>
