<svg xmlns="http://www.w3.org/2000/svg" viewBox="0 0 1200 80" fill="none">
  <rect width="1200" height="80" fill="transparent"/>
  <path d="M0 40C80 30 120 70 200 40C280 10 320 50 400 40C480 30 520 70 600 40C680 10 720 50 800 40C880 30 920 70 1000 40C1080 10 1120 50 1200 40" stroke="#C2410C" stroke-width="2.5" stroke-linecap="round"/>
  <path d="M0 48C80 38 120 78 200 48C280 18 320 58 400 48C480 38 520 78 600 48C680 18 720 58 800 48C880 38 920 78 1000 48C1080 18 1120 58 1200 48" stroke="#F59E0B" stroke-width="1.5" stroke-linecap="round" opacity="0.8"/>
  <circle cx="120" cy="40" r="4" fill="#F59E0B"/>
  <circle cx="360" cy="40" r="4" fill="#F59E0B"/>
  <circle cx="600" cy="40" r="4" fill="#F59E0B"/>
  <circle cx="840" cy="40" r="4" fill="#F59E0B"/>
  <circle cx="1080" cy="40" r="4" fill="#F59E0B"/>
</svg>
